<svg id="Layer_1" height="512" viewBox="0 0 150 150" width="512" xmlns="http://www.w3.org/2000/svg" data-name="Layer 1"><path d="m75 140a65 65 0 1 1 65-65 65.074 65.074 0 0 1 -65 65zm0-128a63 63 0 1 0 63 63 63.072 63.072 0 0 0 -63-63z"/><path d="m53 118.875a7.633 7.633 0 0 1 -7.625-7.625v-72.5a7.625 7.625 0 0 1 15.25 0v72.5a7.633 7.633 0 0 1 -7.625 7.625zm0-85.75a5.631 5.631 0 0 0 -5.625 5.625v72.5a5.625 5.625 0 0 0 11.25 0v-72.5a5.631 5.631 0 0 0 -5.625-5.625z"/><path d="m97 118.875a7.633 7.633 0 0 1 -7.625-7.625v-72.5a7.625 7.625 0 0 1 15.25 0v72.5a7.633 7.633 0 0 1 -7.625 7.625zm0-85.75a5.631 5.631 0 0 0 -5.625 5.625v72.5a5.625 5.625 0 0 0 11.25 0v-72.5a5.631 5.631 0 0 0 -5.625-5.625z"/></svg>